<svg xmlns='http://www.w3.org/2000/svg' class="pikchr" viewBox="0 0 423.581 225.84">
<path d="M17.16,223.68L406.421,223.68A15 15 0 0 0 421.421 208.68L421.421,17.16A15 15 0 0 0 406.421 2.16L17.16,2.16A15 15 0 0 0 2.16 17.16L2.16,208.68A15 15 0 0 0 17.16 223.68Z"  style="fill:rgb(255,255,255);stroke-width:2.16;stroke:rgb(255,255,255);" />
<polygon points="161.16,52.44 149.64,56.76 149.64,48.12" style="fill:rgb(0,0,0)"/>
<path d="M17.16,52.44L155.4,52.44"  style="fill:none;stroke-width:2.16;stroke:rgb(0,0,0);" />
<text x="89.16" y="40.74" text-anchor="middle" fill="rgb(0,0,0)" dominant-baseline="central">Markdown</text>
<text x="89.16" y="64.14" text-anchor="middle" fill="rgb(0,0,0)" dominant-baseline="central">Source</text>
<path d="M176.16,87.72L247.421,87.72A15 15 0 0 0 262.421 72.72L262.421,32.16A15 15 0 0 0 247.421 17.16L176.16,17.16A15 15 0 0 0 161.16 32.16L161.16,72.72A15 15 0 0 0 176.16 87.72Z"  style="fill:none;stroke-width:2.16;stroke:rgb(0,0,0);" />
<text x="211.79" y="32.28" text-anchor="middle" fill="rgb(0,0,0)" dominant-baseline="central">Markdown</text>
<text x="211.79" y="52.44" text-anchor="middle" fill="rgb(0,0,0)" dominant-baseline="central">Formatter</text>
<text x="211.79" y="72.6" text-anchor="middle" fill="rgb(0,0,0)" dominant-baseline="central">(mdbook)</text>
<polygon points="406.421,52.44 394.901,56.76 394.901,48.12" style="fill:rgb(0,0,0)"/>
<path d="M262.421,52.44L400.661,52.44"  style="fill:none;stroke-width:2.16;stroke:rgb(0,0,0);" />
<text x="334.421" y="40.74" text-anchor="middle" fill="rgb(0,0,0)" dominant-baseline="central">HTML+SVG</text>
<text x="334.421" y="64.14" text-anchor="middle" fill="rgb(0,0,0)" dominant-baseline="central">Output</text>
<polygon points="211.79,87.72 216.11,99.24 207.47,99.24" style="fill:rgb(0,0,0)"/>
<polygon points="211.79,138.12 207.47,126.6 216.11,126.6" style="fill:rgb(0,0,0)"/>
<path d="M211.79,93.48L211.79,132.36"  style="fill:none;stroke-width:2.16;stroke:rgb(0,0,0);" />
<path d="M151.622,208.68L271.958,208.68A15 15 0 0 0 286.958 193.68L286.958,153.12A15 15 0 0 0 271.958 138.12L151.622,138.12A15 15 0 0 0 136.622 153.12L136.622,193.68A15 15 0 0 0 151.622 208.68Z"  style="fill:none;stroke-width:2.16;stroke:rgb(0,0,0);" />
<text x="211.79" y="153.24" text-anchor="middle" fill="rgb(0,0,0)" dominant-baseline="central">Pikchr</text>
<text x="211.79" y="173.4" text-anchor="middle" fill="rgb(0,0,0)" dominant-baseline="central">Preprocessor</text>
<text x="211.79" y="193.56" text-anchor="middle" fill="rgb(0,0,0)" dominant-baseline="central">(mdbook-pikchr)</text>
</svg>

